<svg xmlns="http://www.w3.org/2000/svg" viewBox="0 0 1500 1000"><defs><style>.cls-1{fill:#fff;}.cls-2{fill:#231f20;}</style></defs><g id="Layer_2" data-name="Layer 2"><rect class="cls-1" width="1500" height="1000"/><path class="cls-2" d="M221.43,451.11V473h15.23v17.45H221.43v44.44q0,5,1.89,7.08t7.25,2.14a38.29,38.29,0,0,0,7-.57v18a48.81,48.81,0,0,1-14.4,2.14q-25,0-25.52-25.27v-48h-13V473h13V451.11Z"/><path class="cls-2" d="M273.12,482.71q9.45-11.35,23.78-11.35,29,0,29.38,33.66v57H302.5V505.68q0-7.67-3.29-11.32t-10.95-3.66q-10.45,0-15.14,8.06v63.29H249.33V435.64h23.79Z"/><path class="cls-2" d="M366.12,473l.74,10.29q9.54-11.93,25.59-11.93,14.16,0,21.07,8.31t7.08,24.85v57.53H396.82V505.1q0-7.58-3.3-11t-10.94-3.41q-10.05,0-15.06,8.56v62.79H343.73V473Z"/><path class="cls-2" d="M486.85,537.45q0-4.37-4.32-6.88t-13.86-4.48q-31.77-6.68-31.77-27,0-11.85,9.83-19.79t25.72-7.94q16.95,0,27.12,8a25.15,25.15,0,0,1,10.16,20.74H486a11.55,11.55,0,0,0-3.29-8.44q-3.3-3.33-10.29-3.33-6,0-9.3,2.72a8.55,8.55,0,0,0-3.29,6.91,7.33,7.33,0,0,0,3.74,6.38q3.75,2.43,12.63,4.2a103.29,103.29,0,0,1,15,4q18.86,6.91,18.85,24,0,12.18-10.45,19.71t-27,7.53a47.09,47.09,0,0,1-19.87-4,33.29,33.29,0,0,1-13.62-11,25.36,25.36,0,0,1-4.94-15h22.55q.33,6.35,4.69,9.71T473,546.83q6.83,0,10.33-2.59A8.08,8.08,0,0,0,486.85,537.45Z"/><path class="cls-2" d="M547.18,473l.74,10.29q9.55-11.93,25.6-11.93,14.16,0,21.07,8.31t7.08,24.85v57.53H577.88V505.1q0-7.58-3.29-11c-2.2-2.27-5.84-3.41-11-3.41q-10,0-15.06,8.56v62.79H524.8V473Z"/><path class="cls-2" d="M1035.2,526.34l-8.56,8.55v27.16h-23.78V435.64h23.78v70l4.61-5.93,22.8-26.75h28.56l-32.18,37.12,35,51.93h-27.33Z"/><path class="cls-2" d="M1115.2,473l.74,10q9.46-11.59,25.6-11.6,17.19,0,23.62,13.58,9.38-13.59,26.75-13.58,14.47,0,21.56,8.43t7.08,25.39v56.87h-23.87V505.27q0-7.57-3-11.07t-10.46-3.5q-10.69,0-14.81,10.2l.08,61.15h-23.78v-56.7q0-7.74-3-11.19t-10.37-3.46q-10.12,0-14.65,8.39v63H1092.9V473Z"/><path class="cls-2" d="M1235.11,516.87q0-20.82,9.35-33.17T1270,471.36a27.28,27.28,0,0,1,21.48,9.71V435.64h23.87V562.05h-21.48l-1.15-9.46q-8.89,11.11-22.88,11.11-15.72,0-25.23-12.39T1235.11,516.87Zm23.79,1.77q0,12.54,4.36,19.21t12.68,6.67q11,0,15.55-9.31V500q-4.44-9.31-15.39-9.31Q1258.9,490.7,1258.9,518.64Z"/><rect class="cls-2" x="757.85" y="478.7" width="85" height="85"/><rect class="cls-2" x="871.28" y="478.7" width="85" height="85" rx="42.5"/><polygon class="cls-2" points="686.93 488.7 643.63 563.7 730.23 563.7 686.93 488.7"/><path class="cls-2" d="M221.43,614.18v21.89h15.23v17.45H221.43V698q0,4.93,1.89,7.08c1.26,1.42,3.68,2.14,7.25,2.14a37.36,37.36,0,0,0,7-.58v18a49.14,49.14,0,0,1-14.4,2.14q-25,0-25.52-25.27v-48h-13V636.07h13V614.18Z"/><path class="cls-2" d="M273.12,645.78q9.45-11.35,23.78-11.36,29,0,29.38,33.66v57H302.5V668.74q0-7.65-3.29-11.31t-10.95-3.67q-10.45,0-15.14,8.07v63.29H249.33V598.7h23.79Z"/><path class="cls-2" d="M366.12,636.07l.74,10.29q9.54-11.94,25.59-11.94,14.16,0,21.07,8.31t7.08,24.86v57.53H396.82v-57q0-7.57-3.3-11t-10.94-3.42q-10.05,0-15.06,8.56v62.8H343.73v-89Z"/><path class="cls-2" d="M486.85,700.51q0-4.37-4.32-6.87t-13.86-4.49q-31.77-6.66-31.77-27,0-11.85,9.83-19.8t25.72-7.94q16.95,0,27.12,8a25.14,25.14,0,0,1,10.16,20.74H486a11.52,11.52,0,0,0-3.29-8.44q-3.3-3.33-10.29-3.33-6,0-9.3,2.71a8.57,8.57,0,0,0-3.29,6.92,7.3,7.3,0,0,0,3.74,6.37q3.75,2.43,12.63,4.2a103.29,103.29,0,0,1,15,4Q510,682.48,510,699.52q0,12.18-10.45,19.71t-27,7.54a47.09,47.09,0,0,1-19.87-4A33.35,33.35,0,0,1,439,711.83a25.38,25.38,0,0,1-4.94-15h22.55q.33,6.33,4.69,9.71T473,709.89q6.83,0,10.33-2.59A8.06,8.06,0,0,0,486.85,700.51Z"/><path class="cls-2" d="M547.18,636.07l.74,10.29q9.55-11.94,25.6-11.94,14.16,0,21.07,8.31t7.08,24.86v57.53H577.88v-57q0-7.57-3.29-11c-2.2-2.28-5.84-3.42-11-3.42a16.38,16.38,0,0,0-15.06,8.56v62.8H524.8v-89Z"/><path class="cls-2" d="M1035.2,689.4l-8.56,8.56v27.16h-23.78V598.7h23.78v70l4.61-5.92,22.8-26.75h28.56l-32.18,37.12,35,51.93h-27.33Z"/><path class="cls-2" d="M1115.2,636.07l.74,10q9.46-11.61,25.6-11.61,17.19,0,23.62,13.58,9.38-13.57,26.75-13.58,14.47,0,21.56,8.44t7.08,25.39v56.87h-23.87V668.33q0-7.58-3-11.07t-10.46-3.5q-10.69,0-14.81,10.21l.08,61.15h-23.78V668.41c0-5.15-1-8.89-3-11.19s-5.49-3.46-10.37-3.46q-10.12,0-14.65,8.4v63H1092.9v-89Z"/><path class="cls-2" d="M1235.11,679.94q0-20.84,9.35-33.17T1270,634.42a27.28,27.28,0,0,1,21.48,9.71V598.7h23.87V725.12h-21.48l-1.15-9.47q-8.89,11.11-22.88,11.12-15.72,0-25.23-12.39T1235.11,679.94Zm23.79,1.77q0,12.52,4.36,19.2a14.22,14.22,0,0,0,12.68,6.68q11,0,15.55-9.32V663.08q-4.44-9.32-15.39-9.32Q1258.9,653.76,1258.9,681.71Z"/><rect class="cls-2" x="644.43" y="641.77" width="85" height="85"/><rect class="cls-2" x="757.85" y="641.77" width="85" height="85" rx="42.5"/><polygon class="cls-2" points="913.78 651.76 870.48 726.76 957.08 726.76 913.78 651.76"/><path class="cls-2" d="M221.43,288.71V310.6h15.23v17.45H221.43v44.44q0,4.93,1.89,7.08t7.25,2.14a37.36,37.36,0,0,0,7-.58v18a49.14,49.14,0,0,1-14.4,2.14q-25,0-25.52-25.27v-48h-13V310.6h13V288.71Z"/><path class="cls-2" d="M273.12,320.31Q282.57,309,296.9,309q29,0,29.38,33.67v57H302.5V343.27q0-7.65-3.29-11.31t-10.95-3.66q-10.45,0-15.14,8.06v63.29H249.33V273.23h23.79Z"/><path class="cls-2" d="M366.12,310.6l.74,10.29Q376.4,309,392.45,309q14.16,0,21.07,8.32t7.08,24.85v57.53H396.82V342.7q0-7.57-3.3-11t-10.94-3.41q-10.05,0-15.06,8.55v62.8H343.73v-89Z"/><path class="cls-2" d="M486.85,375q0-4.35-4.32-6.87t-13.86-4.49q-31.77-6.66-31.77-27,0-11.85,9.83-19.79T472.45,309q16.95,0,27.12,8a25.14,25.14,0,0,1,10.16,20.74H486a11.53,11.53,0,0,0-3.29-8.44q-3.3-3.33-10.29-3.33-6,0-9.3,2.71a8.57,8.57,0,0,0-3.29,6.92,7.33,7.33,0,0,0,3.74,6.38q3.75,2.43,12.63,4.19a101.91,101.91,0,0,1,15,4Q510,357,510,374.06q0,12.18-10.45,19.71t-27,7.53a47.09,47.09,0,0,1-19.87-4A33.37,33.37,0,0,1,439,386.36a25.38,25.38,0,0,1-4.94-15h22.55q.33,6.33,4.69,9.71T473,384.43q6.83,0,10.33-2.6A8.06,8.06,0,0,0,486.85,375Z"/><path class="cls-2" d="M547.18,310.6l.74,10.29Q557.47,309,573.52,309q14.16,0,21.07,8.32t7.08,24.85v57.53H577.88V342.7q0-7.57-3.29-11c-2.2-2.28-5.84-3.41-11-3.41q-10,0-15.06,8.55v62.8H524.8v-89Z"/><path class="cls-2" d="M1035.2,363.93l-8.56,8.56v27.16h-23.78V273.23h23.78v70l4.61-5.92,22.8-26.75h28.56l-32.18,37.12,35,51.93h-27.33Z"/><path class="cls-2" d="M1115.2,310.6l.74,10q9.46-11.61,25.6-11.61,17.19,0,23.62,13.58,9.38-13.57,26.75-13.58,14.47,0,21.56,8.44t7.08,25.39v56.87h-23.87V342.86q0-7.56-3-11.07t-10.46-3.49q-10.69,0-14.81,10.2l.08,61.15h-23.78V343q0-7.74-3-11.2t-10.37-3.45q-10.12,0-14.65,8.39v63H1092.9v-89Z"/><path class="cls-2" d="M1235.11,354.47q0-20.82,9.35-33.17T1270,309a27.26,27.26,0,0,1,21.48,9.72V273.23h23.87V399.65h-21.48l-1.15-9.46q-8.89,11.1-22.88,11.11-15.72,0-25.23-12.39T1235.11,354.47Zm23.79,1.77q0,12.52,4.36,19.2t12.68,6.68q11,0,15.55-9.31v-35.2q-4.44-9.32-15.39-9.31Q1258.9,328.3,1258.9,356.24Z"/><rect class="cls-2" x="871.28" y="316.3" width="85" height="85"/><rect class="cls-2" x="644.43" y="316.3" width="85" height="85" rx="42.5"/><polygon class="cls-2" points="800.35 326.3 757.05 401.3 843.66 401.3 800.35 326.3"/></g></svg>