<svg xmlns="http://www.w3.org/2000/svg" viewBox="0 0 1000 1000"><defs><style>.cls-1{fill:#fff;}.cls-2{fill:#231f20;}</style></defs><g id="Layer_2" data-name="Layer 2"><rect class="cls-1" width="1000" height="1000" rx="252.87"/><path class="cls-2" d="M222.41,178.15V200h15.22v17.45H222.41v44.45q0,4.94,1.89,7.07c1.26,1.43,3.68,2.14,7.24,2.14a38.33,38.33,0,0,0,7-.57v18a48.81,48.81,0,0,1-14.4,2.14q-25,0-25.52-25.26v-48h-13V200h13V178.15Z"/><path class="cls-2" d="M274.09,209.76q9.46-11.35,23.79-11.36,29,0,29.38,33.66v57H303.48V232.72q0-7.65-3.3-11.32t-10.94-3.66q-10.46,0-15.15,8.07V289.1H250.31V162.68h23.78Z"/><path class="cls-2" d="M367.1,200l.74,10.29q9.54-11.93,25.59-11.93,14.16,0,21.07,8.31t7.08,24.86V289.1H397.79v-57c0-5-1.09-8.71-3.29-11s-5.84-3.42-10.94-3.42q-10.05,0-15.06,8.56v62.8H344.71V200Z"/><path class="cls-2" d="M487.83,264.49q0-4.37-4.32-6.87t-13.87-4.49q-31.77-6.66-31.76-27,0-11.85,9.83-19.79t25.72-7.94q16.95,0,27.12,8a25.16,25.16,0,0,1,10.16,20.74H486.93a11.51,11.51,0,0,0-3.29-8.43q-3.3-3.34-10.29-3.34-6,0-9.3,2.72a8.55,8.55,0,0,0-3.29,6.91,7.31,7.31,0,0,0,3.74,6.38q3.75,2.43,12.63,4.2a103.29,103.29,0,0,1,15,4Q511,246.46,511,263.5q0,12.18-10.45,19.71t-27,7.53a47.06,47.06,0,0,1-19.87-4A33.29,33.29,0,0,1,440,275.8a25.36,25.36,0,0,1-4.94-15h22.55q.33,6.35,4.69,9.72T474,273.87q6.83,0,10.33-2.59A8.06,8.06,0,0,0,487.83,264.49Z"/><path class="cls-2" d="M548.16,200l.74,10.29q9.55-11.93,25.6-11.93,14.14,0,21.07,8.31t7.08,24.86V289.1H578.86v-57c0-5-1.1-8.71-3.29-11s-5.85-3.42-11-3.42q-10,0-15.06,8.56v62.8H525.78V200Z"/><path class="cls-2" d="M518.23,763.8l-8.56,8.56v27.16H485.88V673.11h23.79v70l4.61-5.93,22.8-26.75h28.55l-32.18,37.12,35,51.93H541.11Z"/><path class="cls-2" d="M598.23,710.47l.74,10q9.46-11.61,25.59-11.6,17.21,0,23.62,13.58,9.39-13.59,26.75-13.58,14.49,0,21.57,8.43t7.07,25.39v56.87H679.71V742.73q0-7.56-3-11.06t-10.45-3.5q-10.69,0-14.81,10.2l.08,61.15H627.77v-56.7q0-7.74-3-11.2t-10.37-3.45q-10.12,0-14.65,8.39v63H575.92v-89Z"/><path class="cls-2" d="M718.14,754.34q0-20.82,9.34-33.17T753,708.83a27.25,27.25,0,0,1,21.48,9.71V673.11h23.87V799.52H776.9l-1.15-9.46a28,28,0,0,1-22.88,11.11q-15.72,0-25.22-12.39T718.14,754.34Zm23.79,1.77q0,12.52,4.36,19.21A14.2,14.2,0,0,0,759,782q11,0,15.56-9.31v-35.2q-4.46-9.32-15.39-9.31Q741.93,728.17,741.93,756.11Z"/><rect class="cls-2" x="200.55" y="714.37" width="85" height="85"/><rect class="cls-2" x="711.05" y="202.85" width="85" height="85" rx="42.5"/><polygon class="cls-2" points="500 446.5 456.7 521.5 543.3 521.5 500 446.5"/></g></svg>